<svg fill="#40C057" xmlns="http://www.w3.org/2000/svg"  viewBox="0 0 64 64" width="64px" height="64px"><path d="M 27.5 4 C 16.196 4 7 13.196 7 24.5 C 7 34.67 14.453688 43.110078 24.179688 44.705078 L 26 52 L 32 52 L 30 60 L 36 60 L 39 48 L 31 48 L 30 44 L 29.210938 40.839844 C 27.700937 40.629844 26.260156 40.219141 24.910156 39.619141 C 19.080156 37.079141 15 31.26 15 24.5 C 15 15.4 22.4 8 31.5 8 C 40.6 8 48 15.4 48 24.5 C 48 28.69 46.429375 32.509922 43.859375 35.419922 C 42.899375 36.509922 41.790312 37.469297 40.570312 38.279297 L 46 60 L 50 60 L 44.980469 39.919922 C 49.280469 36.169922 52 30.64 52 24.5 C 52 13.2 42.8 4 31.5 4 L 31 4 L 27.5 4 z M 26 12 L 27 16 L 35 16 L 34 12 L 26 12 z"/></svg>